<svg width="18" height="15" viewBox="0 0 18 15" fill="none" xmlns="http://www.w3.org/2000/svg">
<g clip-path="url(#clip0)">
<path d="M17.2146 1.96763C16.568 1.19902 15.3742 0.885498 13.0943 0.885498H4.81831C2.48624 0.885498 1.27221 1.21924 0.628046 2.03753C0 2.83538 0 4.01094 0 5.63794V8.739C0 11.891 0.745172 13.4914 4.81831 13.4914H13.0943C15.0714 13.4914 16.167 13.2148 16.8758 12.5364C17.6027 11.8409 17.9128 10.7052 17.9128 8.739V5.63794C17.9128 3.92213 17.8642 2.73964 17.2146 1.96763ZM11.5001 7.6166L7.74196 9.58063C7.65795 9.62455 7.56607 9.64634 7.4743 9.64634C7.37041 9.64634 7.26675 9.61836 7.17494 9.56278C7.00205 9.45803 6.89648 9.27064 6.89648 9.06852V5.15304C6.89648 4.95126 7.00176 4.76406 7.1743 4.65924C7.3469 4.55443 7.56156 4.54727 7.74063 4.64029L11.4988 6.59167C11.69 6.69094 11.81 6.88832 11.8103 7.10367C11.8106 7.3192 11.691 7.51687 11.5001 7.6166Z" fill="#6F6F6F"/>
</g>
<defs>
<clipPath id="clip0">
<rect y="0.885498" width="17.9128" height="13.1989" fill="white"/>
</clipPath>
</defs>
</svg>
