<svg width="20" height="13" viewBox="0 0 20 13" fill="none" xmlns="http://www.w3.org/2000/svg">
<g clip-path="url(#clip0)">
<path d="M19.6697 10.544C19.6469 10.4948 19.6256 10.4539 19.6058 10.4212C19.2786 9.83206 18.6535 9.10886 17.7307 8.25146L17.7112 8.23182L17.7014 8.2222L17.6915 8.21233H17.6816C17.2628 7.81308 16.9976 7.54463 16.8865 7.4072C16.6833 7.14539 16.6378 6.88037 16.7489 6.61186C16.8273 6.40898 17.1221 5.98054 17.6324 5.32595C17.9008 4.97902 18.1134 4.70099 18.2705 4.49151C19.4029 2.98611 19.8938 2.02414 19.7431 1.60523L19.6847 1.50733C19.6454 1.4484 19.5439 1.39448 19.3804 1.34531C19.2167 1.29624 19.0073 1.28813 18.752 1.32083L15.9247 1.34036C15.8789 1.32413 15.8134 1.32564 15.7283 1.34531C15.6432 1.36498 15.6006 1.37484 15.6006 1.37484L15.5513 1.39943L15.5123 1.42897C15.4796 1.4485 15.4436 1.48285 15.4043 1.53195C15.3651 1.58088 15.3325 1.63831 15.3063 1.70374C14.9985 2.49567 14.6485 3.23197 14.2558 3.9126C14.0136 4.31845 13.7912 4.67018 13.5881 4.96799C13.3852 5.2657 13.215 5.48504 13.0777 5.62565C12.9401 5.76639 12.8161 5.87914 12.7045 5.96431C12.5933 6.04952 12.5083 6.08552 12.4494 6.07234C12.3905 6.05918 12.335 6.04612 12.2824 6.03305C12.1908 5.97411 12.1172 5.89396 12.0617 5.79252C12.0058 5.69109 11.9683 5.56341 11.9487 5.4096C11.9291 5.25569 11.9176 5.12331 11.9143 5.012C11.9112 4.90084 11.9126 4.74359 11.9193 4.54072C11.9261 4.33774 11.9291 4.2004 11.9291 4.1284C11.9291 3.87966 11.934 3.6097 11.9437 3.31845C11.9536 3.0272 11.9616 2.79645 11.9683 2.62644C11.975 2.45626 11.9781 2.27623 11.9781 2.08642C11.9781 1.89661 11.9665 1.74775 11.9437 1.63972C11.9212 1.53181 11.8866 1.42708 11.841 1.32554C11.795 1.2241 11.7278 1.14563 11.6397 1.08993C11.5513 1.03429 11.4415 0.990139 11.3108 0.957336C10.9639 0.878834 10.5221 0.836368 9.98533 0.829766C8.76805 0.8167 7.98589 0.895305 7.639 1.06548C7.50156 1.13738 7.37719 1.23562 7.26599 1.35989C7.14815 1.50393 7.13172 1.58253 7.21679 1.59546C7.60954 1.6543 7.88757 1.79504 8.05122 2.01754L8.11019 2.13546C8.15606 2.22052 8.20186 2.37113 8.24769 2.58707C8.29347 2.80301 8.323 3.04189 8.336 3.30356C8.36866 3.78141 8.36866 4.19047 8.336 4.53074C8.30322 4.87116 8.27228 5.13617 8.24275 5.32598C8.21321 5.51579 8.16906 5.66959 8.11019 5.78736C8.05122 5.90517 8.01198 5.97717 7.99232 6.0033C7.97268 6.02944 7.95631 6.04591 7.94332 6.05237C7.85824 6.08497 7.76977 6.10158 7.6782 6.10158C7.5865 6.10158 7.4753 6.0557 7.34442 5.96404C7.21359 5.87236 7.0778 5.74645 6.93705 5.58607C6.79632 5.42567 6.6376 5.2015 6.46082 4.91356C6.28418 4.62561 6.10091 4.2853 5.9111 3.89262L5.75406 3.60784C5.65589 3.42463 5.52179 3.15787 5.35161 2.80779C5.18134 2.45757 5.03083 2.11881 4.89999 1.79156C4.84769 1.65412 4.76912 1.54949 4.66442 1.47749L4.61529 1.44795C4.58262 1.42182 4.53018 1.39407 4.45825 1.36449C4.38621 1.33496 4.31104 1.31378 4.23243 1.30074L1.54249 1.32027C1.26761 1.32027 1.08111 1.38255 0.982902 1.50692L0.9436 1.56575C0.923966 1.59852 0.914062 1.65086 0.914062 1.72289C0.914062 1.7949 0.933697 1.88327 0.972999 1.9879C1.36568 2.91081 1.79272 3.80088 2.2541 4.65824C2.71548 5.51562 3.11642 6.20625 3.45666 6.72953C3.79697 7.25318 4.14386 7.74741 4.49731 8.21195C4.85075 8.67667 5.08471 8.97449 5.19919 9.10532C5.31379 9.2364 5.40381 9.33439 5.46924 9.39983L5.71472 9.6354C5.8718 9.79252 6.10245 9.98067 6.4068 10.1999C6.71121 10.4192 7.04823 10.6351 7.41801 10.848C7.78785 11.0606 8.21813 11.234 8.70904 11.3682C9.1999 11.5024 9.67765 11.5563 10.1424 11.5303H11.2714C11.5003 11.5105 11.6738 11.4386 11.7917 11.3143L11.8308 11.2651C11.8571 11.226 11.8817 11.1654 11.9043 11.0836C11.9273 11.0019 11.9387 10.9118 11.9387 10.8137C11.932 10.5323 11.9534 10.2787 12.0024 10.053C12.0514 9.82724 12.1071 9.65707 12.1695 9.54247C12.2318 9.42796 12.3022 9.33134 12.3805 9.253C12.4589 9.17451 12.5148 9.12695 12.5477 9.11058C12.5803 9.09411 12.6063 9.08294 12.6259 9.07623C12.783 9.0239 12.9679 9.07458 13.1807 9.22852C13.3935 9.38233 13.5931 9.57224 13.7797 9.79795C13.9663 10.0239 14.1904 10.2774 14.4521 10.5587C14.7141 10.8402 14.9431 11.0494 15.1393 11.187L15.3355 11.3049C15.4667 11.3834 15.6369 11.4555 15.8463 11.5209C16.0555 11.5863 16.2386 11.6027 16.3959 11.57L18.909 11.5308C19.1577 11.5308 19.351 11.4896 19.4882 11.4079C19.6257 11.3261 19.7074 11.236 19.7337 11.138C19.76 11.0399 19.7614 10.9285 19.7387 10.804C19.7154 10.6798 19.6925 10.593 19.6697 10.544Z" fill="#6F6F6F"/>
</g>
<defs>
<clipPath id="clip0">
<rect x="0.914062" y="0.828369" width="18.8556" height="11.3133" fill="white"/>
</clipPath>
</defs>
</svg>
