<svg width="11" height="17" viewBox="0 0 11 17" fill="none" xmlns="http://www.w3.org/2000/svg">
<g clip-path="url(#clip0)">
<path d="M9.51099 0.00353089L7.31037 0C4.83804 0 3.2403 1.63922 3.2403 4.17634V6.10191H1.02767C0.83647 6.10191 0.681641 6.25691 0.681641 6.44812V9.23805C0.681641 9.42929 0.836647 9.58409 1.02767 9.58409H3.2403V16.624C3.2403 16.8152 3.39513 16.97 3.58633 16.97H6.47319C6.66439 16.97 6.81922 16.815 6.81922 16.624V9.58409H9.40631C9.5975 9.58409 9.75233 9.42929 9.75233 9.23805L9.75339 6.44812C9.75339 6.35631 9.71685 6.2684 9.65205 6.20342C9.58726 6.13845 9.49899 6.10191 9.40718 6.10191H6.81922V4.46958C6.81922 3.68502 7.00618 3.28673 8.0282 3.28673L9.51064 3.2862C9.70166 3.2862 9.85649 3.13119 9.85649 2.94017V0.349558C9.85649 0.158714 9.70184 0.00388398 9.51099 0.00353089Z" fill="#797979"/>
</g>
<defs>
<clipPath id="clip0">
<rect x="0.681641" width="9.42778" height="16.97" fill="white"/>
</clipPath>
</defs>
</svg>
