<svg width="35" height="35" viewBox="0 0 35 35" fill="none" xmlns="http://www.w3.org/2000/svg">
<path d="M34.8948 10.2849C34.8096 8.42209 34.5137 7.14996 34.0812 6.03699C33.6419 4.86927 32.953 3.81157 32.0627 2.93732C31.1887 2.04704 30.1307 1.35784 28.963 0.918312C27.8498 0.485992 26.5779 0.190392 24.7151 0.105743C22.8489 0.0202942 22.2526 0 17.5 0C12.7474 0 12.1511 0.0202942 10.2849 0.105209C8.42209 0.190392 7.15023 0.486259 6.03699 0.918846C4.86927 1.35811 3.81157 2.04704 2.93732 2.93732C2.04704 3.8113 1.35784 4.869 0.918312 6.03672C0.485992 7.14996 0.190392 8.42209 0.105743 10.2846C0.0202942 12.1511 0 12.7472 0 17.4997C0 22.2526 0.0202942 22.8489 0.105743 24.7151C0.190659 26.5776 0.486526 27.8498 0.919113 28.963C1.35838 30.1305 2.04731 31.1884 2.93758 32.0624C3.81157 32.9527 4.86954 33.6416 6.03725 34.0809C7.15023 34.5137 8.42236 34.8093 10.2851 34.8945C12.1517 34.9797 12.7477 34.9997 17.5003 34.9997C22.2528 34.9997 22.8491 34.9797 24.7154 34.8945C26.5782 34.8093 27.85 34.5137 28.9633 34.0809C31.3139 33.1719 33.1722 31.3137 34.0812 28.963C34.514 27.8498 34.8096 26.5776 34.8948 24.7151C34.9797 22.8486 35 22.2526 35 17.5C35 12.7472 34.9797 12.1511 34.8948 10.2849ZM31.7447 24.5717C31.6669 26.278 31.3818 27.2046 31.1422 27.8212C30.5534 29.3475 29.3473 30.5537 27.8209 31.1425C27.2044 31.382 26.2778 31.6672 24.5715 31.7449C22.7266 31.8293 22.173 31.8469 17.5 31.8469C12.8267 31.8469 12.2734 31.8293 10.4283 31.7449C8.72223 31.6672 7.79564 31.382 7.1788 31.1425C6.41884 30.8619 5.73124 30.4146 5.16674 29.8333C4.58542 29.2688 4.13815 28.5814 3.8575 27.8212C3.61797 27.2046 3.33279 26.278 3.25508 24.5717C3.17097 22.7266 3.15308 22.173 3.15308 17.5003C3.15308 12.8273 3.17097 12.274 3.25508 10.4285C3.33305 8.72223 3.61797 7.79564 3.8575 7.17907C4.13815 6.41884 4.58569 5.73124 5.16674 5.16674C5.73124 4.58542 6.41884 4.13815 7.17907 3.85777C7.79564 3.61797 8.72223 3.33305 10.4285 3.25508C12.2737 3.17097 12.8273 3.15308 17.5 3.15308H17.4997C22.1725 3.15308 22.726 3.17097 24.5715 3.25535C26.2778 3.33305 27.2041 3.61824 27.8209 3.85777C28.5809 4.13841 29.2685 4.58569 29.833 5.16674C30.4143 5.73124 30.8616 6.41884 31.142 7.17907C31.3818 7.79564 31.6669 8.72223 31.7447 10.4285C31.8288 12.2737 31.8467 12.8273 31.8467 17.5C31.8467 22.173 31.829 22.7263 31.7447 24.5717Z" fill="#D9D9D9"/>
<path d="M17.5 8.51343C12.537 8.51343 8.51367 12.537 8.51367 17.5C8.51367 22.463 12.537 26.4863 17.5 26.4863C22.4633 26.4863 26.4866 22.463 26.4866 17.5C26.4866 12.537 22.4633 8.51343 17.5 8.51343ZM17.5 23.3333C14.2786 23.333 11.6667 20.7215 11.667 17.4997C11.667 14.2783 14.2786 11.6665 17.5003 11.6665C20.722 11.6668 23.3335 14.2783 23.3335 17.4997C23.3335 20.7215 20.7217 23.3333 17.5 23.3333Z" fill="#D9D9D9"/>
<path d="M28.9423 8.15853C28.9423 9.31824 28.0021 10.2584 26.8424 10.2584C25.6824 10.2584 24.7422 9.31824 24.7422 8.15853C24.7422 6.99856 25.6824 6.05835 26.8424 6.05835C28.0021 6.05835 28.9423 6.99856 28.9423 8.15853Z" fill="#D9D9D9"/>
</svg>
