<svg width="19" height="16" viewBox="0 0 19 16" fill="none" xmlns="http://www.w3.org/2000/svg">
<g clip-path="url(#clip0)">
<path d="M18.427 2.57962C17.7594 2.86678 17.0916 3.04611 16.4243 3.11814C17.178 2.66591 17.6879 2.02702 17.9535 1.20152C17.264 1.61061 16.5283 1.89049 15.746 2.04131C15.0567 1.30912 14.2098 0.942871 13.2047 0.942871C12.2428 0.942871 11.4228 1.282 10.7441 1.96041C10.0659 2.63879 9.7267 3.45886 9.7267 4.42074C9.7267 4.67912 9.75537 4.94482 9.81284 5.21758C8.39145 5.1458 7.05808 4.78869 5.81252 4.14621C4.56702 3.50366 3.50999 2.64762 2.64143 1.57806C2.32556 2.11633 2.16758 2.70147 2.16758 3.33316C2.16758 3.92898 2.30753 4.48179 2.58764 4.99148C2.86756 5.50108 3.24452 5.91379 3.71833 6.22969C3.15831 6.20812 2.63429 6.06092 2.14623 5.78813V5.83119C2.14623 6.67114 2.41004 7.40858 2.9376 8.04407C3.46523 8.67949 4.13108 9.07946 4.93501 9.24464C4.63348 9.32351 4.32833 9.363 4.0197 9.363C3.81869 9.363 3.59972 9.34508 3.36287 9.30944C3.58539 10.0056 3.99459 10.5779 4.59033 11.0268C5.18618 11.4754 5.86098 11.7067 6.61475 11.7214C5.35138 12.7118 3.9121 13.2071 2.29694 13.2071C1.98821 13.2071 1.70832 13.193 1.45703 13.1642C3.07224 14.2049 4.85249 14.7253 6.79789 14.7253C8.03259 14.7253 9.19194 14.5299 10.2755 14.1386C11.3597 13.7475 12.2856 13.2234 13.0538 12.5664C13.8218 11.9096 14.4841 11.1541 15.0404 10.2999C15.5967 9.44559 16.0111 8.55375 16.2841 7.62416C16.5568 6.69437 16.6932 5.76316 16.6932 4.82979C16.6932 4.62877 16.6896 4.4781 16.6824 4.37755C17.3646 3.88247 17.946 3.28296 18.427 2.57962Z" fill="#6F6F6F"/>
</g>
<defs>
<clipPath id="clip0">
<rect x="0.767578" y="0.942871" width="17.9128" height="14.1417" fill="white"/>
</clipPath>
</defs>
</svg>
